<svg id="Capa_1" xmlns="http://www.w3.org/2000/svg" viewBox="0 0 116 9.1"><style>.st0{fill:#fff}</style><path class="st0" d="M5.3 2L3.6 7.9H2.5L.2.2h1.1l1.8 6.6 1.7-6h1.1l1.8 6.1L9.5.3h1.1L8.2 7.9H7.1L5.3 2zM15.4 5.8h-3.3l-.8 2.1h-1l3-7.7h1.1l3 7.7h-1.1l-.9-2.1zm-3-.9h2.7l-1.3-3.6-1.4 3.6zM20.6 1.1V8h-1.1V1.1h-2.7V.2h6.4v.9h-2.6zM29.6 7.3c-.3.2-.6.4-1 .6-.4.1-.9.2-1.4.2-.6 0-1.2-.1-1.6-.3-.5-.2-.8-.5-1.1-.9s-.5-.8-.7-1.3-.2-1-.2-1.6c0-.6.1-1.2.3-1.7.2-.5.4-.9.8-1.3s.7-.6 1.2-.8 1-.3 1.5-.3.9.1 1.3.2.7.3 1 .5l-.5.8c-.2-.2-.5-.3-.8-.4s-.7 0-1 0c-.8 0-1.5.3-2 .8S24.7 3 24.7 4c0 1 .2 1.8.7 2.3.5.5 1.1.8 1.9.8.4 0 .7-.1 1-.2s.6-.2.8-.4l.5.8zM35.9 7.9V4.4h-3.8v3.5H31V.2h1.1v3.4h3.8V.2H37v7.7h-1.1zM44.7 1.1V8h-1.1V1.1h-2.7V.2h6.4v.9h-2.6zM53.4 7.9V4.4h-3.8v3.5h-1.1V.2h1.1v3.4h3.8V.2h1.1v7.7h-1.1zM57.5 4.5V7h3.9v.9h-5V.2h5v.9h-3.9v2.5h3.3v.9h-3.3zM65.9.2l2.4 6.6L70.7.2h1.1l-2.9 7.7h-1.1l-3-7.7h1.1zM78.1 2.4c0 .3 0 .6-.1.8s-.2.5-.4.7-.4.3-.6.4-.5.2-.8.3l2.4 3.3h-1.3l-1.9-2.8-.3-.3c-.1 0-.2-.1-.4-.1h-.8v3.2h-1V.2h2.5c.8 0 1.5.2 2 .6.4.3.7.9.7 1.6zm-1.1 0c0-.5-.1-.8-.4-1s-.7-.3-1.3-.3h-1.5v2.8h1.4c.5 0 .9-.1 1.3-.3s.5-.7.5-1.2zM87.7 2.4c0 .3 0 .6-.1.8s-.2.5-.4.7-.4.3-.6.5-.5.2-.8.3L88.2 8H87l-2-2.9-.3-.3c-.1 0-.2-.1-.4-.1h-.8v3.2h-1V.2H85c.8 0 1.5.2 2 .6.5.3.7.9.7 1.6zm-1 0c0-.5-.1-.8-.4-1s-.7-.3-1.3-.3h-1.5v2.8h1.4c.5 0 .9-.1 1.3-.3s.5-.7.5-1.2zM90.4 4.5V7h3.9v.9h-5V.2h5v.9h-3.9v2.5h3.3v.9h-3.3zM101.3 7.3c-.3.2-.6.4-1 .6-.4.1-.8.2-1.3.2-.6 0-1.2-.1-1.6-.3-.5-.2-.8-.5-1.1-.9s-.5-.8-.7-1.3-.2-1-.2-1.6c0-.6.1-1.2.3-1.7.2-.5.4-.9.8-1.3s.7-.6 1.2-.8.8-.2 1.3-.2.9.1 1.3.2.7.3 1 .5l-.5.8c-.2-.2-.5-.3-.8-.4s-.6-.1-.9-.1c-.8 0-1.5.3-2 .8S96.4 3 96.4 4c0 1 .2 1.8.7 2.3.5.5 1.1.8 1.9.8.4 0 .7-.1 1-.2s.6-.2.8-.4l.5.8zM107 5.8h-3.3l-.8 2.1h-1l3-7.7h1.1l3 7.7h-1.1l-.9-2.1zm-3-.9h2.7l-1.3-3.6-1.4 3.6zM111.1 7.9H110V.2h2.7c.9 0 1.5.2 2 .6s.7 1 .7 1.8-.2 1.4-.7 1.8-1.1.7-2 .7h-1.6v2.8zm0-3.7h1.6c.5 0 1-.1 1.2-.4.3-.3.4-.6.4-1.2s-.1-.9-.4-1.2-.7-.4-1.2-.4h-1.6v3.2zM0 9.1v-.8h116v.8H0z"/></svg>