<svg id="Capa_1" xmlns="http://www.w3.org/2000/svg" xmlns:xlink="http://www.w3.org/1999/xlink" viewBox="0 0 107.7 31.6"><style>.st0{fill:#fff}</style><g id="_x33_00x250.psd"><image width="300" height="250" id="_x33_00x250_2_" xlink:href="BD222466706A57DE.jpg" transform="translate(-13.32 230.388)" overflow="visible"/></g><path class="st0" d="M9 4.4v27.2H4.3V4.4H0V0h13.3v4.4H9zm14.8 27.2V17.7h-4v13.8H15V0h4.7v13.4h4V0h4.7v31.6h-4.6zM36 17.8v9.3h6.3v4.4h-11V0H42v4.4h-6v9.1h4.8v4.4H36zm18 .5v13.3h-4.7V0h10.2v4.4H54v9.5h4.5v4.4H54zm12.2 13.3h-4.7V0h4.7v31.6zm7.6-13.8v9.3H80v4.4H69V0h10.7v4.4h-6v9.1h4.8v4.4h-4.7zm12.9 9.4h5.9v4.4H82V0h4.7v27.2zm21-4.8c0 2.3-.3 4.1-.8 5.4-.5 1.3-1.3 2.3-2.4 2.8-1.1.6-2.5.9-4.4.9h-5.8V0h5.8c1.9 0 3.4.3 4.5.9 1.1.6 1.8 1.6 2.3 2.9.5 1.3.7 3.1.7 5.3v13.3zm-4.8-13.2c0-1.9-.2-3.2-.6-3.9-.4-.7-1.1-1-2.2-1h-1v23h1c1.1 0 1.8-.3 2.2-1 .4-.7.6-2 .6-3.9V9.2zM8.8 68H4.1V36.4h4.7V68zm10.1-8.7c0-1.4-.1-2.4-.4-3-.3-.6-.8-1.3-1.7-1.9l-1.7-1.2c-1.6-1.1-2.6-2.2-3.2-3.4-.6-1.1-.8-2.7-.8-4.7v-1.6c0-2.6.5-4.5 1.5-5.7 1-1.2 2.6-1.8 4.7-1.8h.3c2 0 3.5.6 4.5 1.8 1 1.2 1.4 3.1 1.4 5.7v3.2h-4.4V44c0-1.3-.1-2.3-.3-2.7-.2-.5-.6-.7-1.3-.7h-.2c-.6 0-1 .3-1.3.8-.2.5-.4 1.4-.4 2.7v.6c0 1 .1 1.7.2 2.2.1.5.3.9.6 1.3s.7.7 1.3 1.2l1.8 1.3c1.6 1.1 2.6 2.2 3.2 3.3.5 1.1.8 2.7.8 4.6v2.3c0 5.2-2.1 7.7-6.2 7.7H17c-2 0-3.6-.6-4.5-1.9-1-1.2-1.5-3.2-1.5-5.9V57h4.4v3.4c0 1.4.1 2.4.4 2.9.2.5.7.8 1.3.8h.2c.6 0 1-.3 1.3-.8.2-.5.3-1.5.3-2.9v-1.1zm20.2-3.5V68h-4.7V55.8l-5-19.4h4.9l.9 4.8 1.6 8.8 1.7-8.8 1-4.8h4.8l-5.2 19.4zm5.5-11.1c0-3 .5-5.2 1.6-6.7 1.1-1.4 2.7-2.1 4.9-2.1h.8c2.2 0 3.9.7 4.9 2.1 1.1 1.4 1.6 3.6 1.6 6.7v14.9c0 3-.5 5.2-1.6 6.7-1.1 1.4-2.7 2.1-4.9 2.1h-.8c-2.2 0-3.9-.7-4.9-2.1-1.1-1.4-1.6-3.6-1.6-6.7V44.7zm9 .5c0-1.8-.1-3-.4-3.7-.3-.7-.8-1-1.6-1h-.3c-.8 0-1.3.3-1.6 1-.3.7-.4 1.9-.4 3.7v14.1c0 1.8.1 3 .4 3.7.3.7.8 1 1.6 1h.3c.8 0 1.3-.3 1.6-1 .3-.7.4-1.9.4-3.7V45.2zm15.7-8.8H74v23.8c0 2.9-.5 5-1.6 6.3-1 1.3-2.7 2-4.9 2h-.4c-2.2 0-3.9-.7-4.9-2-1-1.3-1.6-3.4-1.6-6.3V36.4h4.7v23.3c0 1.6.1 2.7.4 3.3.3.6.7.9 1.4.9h.2c.7 0 1.2-.3 1.4-.9.3-.6.4-1.7.4-3.3V36.4zM89.5 48c0 2.8-.9 4.5-2.8 5.3.9.4 1.4 1.3 1.6 2.5L90.5 68h-4.9l-1.7-10.8c-.1-.8-.3-1.3-.6-1.5-.3-.3-.7-.4-1.3-.4h-.7V68h-4.6V36.4h6.2c2.3 0 4 .5 5.1 1.6 1.1 1.1 1.6 2.8 1.6 5.1V48zm-4.7-4.6c0-1-.2-1.7-.5-2.1-.4-.4-1-.6-1.8-.6h-1.1v10.5h1.1c.8 0 1.4-.2 1.8-.7.4-.5.6-1.2.6-2.3v-4.8zm14.5 15.9c0-1.4-.1-2.4-.4-3-.3-.6-.8-1.3-1.7-1.9l-1.7-1.2c-1.6-1.1-2.6-2.2-3.2-3.4-.6-1.1-.8-2.7-.8-4.7v-1.6c0-2.6.5-4.5 1.5-5.7 1-1.2 2.6-1.8 4.7-1.8h.3c2 0 3.5.6 4.5 1.8 1 1.2 1.4 3.1 1.4 5.7v3.2h-4.4V44c0-1.3-.1-2.3-.3-2.7-.2-.5-.6-.7-1.3-.7h-.2c-.6 0-1 .3-1.3.8-.2.5-.4 1.4-.4 2.7v.6c0 1 .1 1.7.2 2.2.1.5.3.9.6 1.3s.7.7 1.3 1.2l1.8 1.3c1.6 1.1 2.6 2.2 3.2 3.3.5 1.1.8 2.7.8 4.6v2.3c0 5.2-2.1 7.7-6.2 7.7h-.3c-2 0-3.6-.6-4.5-1.9-1-1.2-1.5-3.2-1.5-5.9V57h4.4v3.4c0 1.4.1 2.4.4 2.9.2.5.7.8 1.3.8h.2c.6 0 1-.3 1.3-.8.2-.5.3-1.5.3-2.9v-1.1zm6.5 8.7v-5.5h4.8V68h-4.8zM10.3 149.3c0 1.3-.3 2.2-.9 2.8-.5.6-1.4.9-2.6.9H3.5v-16.6h3.2c1.2 0 2.1.3 2.7.9.5.6.8 1.5.8 2.8v1.8c0 1.4-.5 2.2-1.5 2.6.6.2 1 .5 1.2 1s.4 1.1.4 1.9v1.9zm-4.5-5.7h.6c.5 0 .8-.1 1-.4.2-.2.3-.7.3-1.2v-1.7c0-.6-.1-1-.3-1.2-.2-.2-.5-.3-1-.3h-.6v4.8zm0 7.2h.6c.5 0 .8-.1 1.1-.3.2-.2.3-.6.3-1.2v-1.8c0-.6-.1-1.1-.3-1.3-.2-.2-.6-.4-1.1-.4h-.6v5zm8.1 2.2h-2.5v-16.6h2.5V153zm4-2.3H21v2.3h-5.6v-16.6h2.5v14.3zm6.5 0h3.1v2.3H22v-16.6h2.5v14.3zm7.9-2.2c0-.7-.1-1.3-.2-1.6-.1-.3-.4-.7-.9-1l-.9-.6c-.8-.6-1.4-1.2-1.7-1.8-.3-.6-.4-1.4-.4-2.5v-.8c0-1.3.3-2.3.8-3 .5-.6 1.4-1 2.5-1h.1c1.1 0 1.9.3 2.4 1 .5.6.8 1.6.8 3v1.7h-2.3v-1.4c0-.7-.1-1.2-.2-1.4-.1-.3-.3-.4-.7-.4h-.1c-.3 0-.5.1-.7.4-.1.3-.2.7-.2 1.4v.3c0 .5 0 .9.1 1.2.1.3.2.5.3.7.1.2.4.4.7.6l.9.7c.8.6 1.4 1.2 1.7 1.7s.4 1.4.4 2.4v1.2c0 2.7-1.1 4.1-3.3 4.1h-.1c-1.1 0-1.9-.3-2.4-1s-.8-1.7-.8-3.1v-2h2.3v1.8c0 .7.1 1.2.2 1.5.1.3.4.4.7.4h.1c.3 0 .5-.1.7-.4.1-.3.2-.8.2-1.5v-.6zm8.1-.1l.6-5.1h1.4L41 153h-1.7l-1.4-9.7h1.5l.6 5.1.3 2.3.1-2.3zm4.7 2c0-.4 0-.7-.1-.9-.1-.2-.3-.4-.5-.6l-.5-.4c-.5-.3-.8-.7-1-1-.2-.4-.3-.8-.3-1.4v-.5c0-.8.2-1.4.5-1.7s.8-.6 1.5-.6h.1c.6 0 1.1.2 1.4.6.3.4.4 1 .4 1.7v1h-1.4v-.8c0-.4 0-.7-.1-.8-.1-.1-.2-.2-.4-.2h-.1c-.2 0-.3.1-.4.2-.1.2-.1.4-.1.8v.2c0 .3 0 .5.1.7 0 .1.1.3.2.4l.4.4.5.4c.5.3.8.7 1 1 .2.3.3.8.3 1.4v.7c0 1.6-.6 2.4-1.9 2.4h-.1c-.6 0-1.1-.2-1.4-.6s-.4-1-.4-1.8v-1.2H44v1c0 .4 0 .7.1.9.1.2.2.2.4.2h.1c.2 0 .3-.1.4-.2.1-.2.1-.5.1-.9v-.4zm10.8-13.9v12.9c0 1.3-.3 2.3-.8 3-.5.6-1.3.9-2.4.9h-.1c-1.1 0-1.8-.3-2.3-.9-.5-.6-.7-1.6-.7-3v-2.2h2.3v2c0 .7 0 1.1.1 1.4.1.2.3.4.6.4h.1c.3 0 .5-.1.6-.4.1-.3.2-.7.2-1.3v-12.8h2.4zm3.9 9.3v4.9h3.3v2.3h-5.8v-16.6H63v2.3h-3.2v4.8h2.5v2.3h-2.5zm8.8-7V153h-2.5v-14.3h-2.3v-2.3h7v2.3h-2.2zm7 9.7c0-.7-.1-1.3-.2-1.6-.1-.3-.4-.7-.9-1l-.9-.6c-.8-.6-1.4-1.2-1.7-1.8-.3-.6-.4-1.4-.4-2.5v-.8c0-1.3.3-2.3.8-3 .5-.6 1.4-1 2.5-1h.1c1.1 0 1.9.3 2.4 1 .5.6.8 1.6.8 3v1.7h-2.3v-1.4c0-.7-.1-1.2-.2-1.4-.1-.3-.3-.4-.7-.4h-.1c-.3 0-.5.1-.7.4-.1.3-.2.7-.2 1.4v.3c0 .5 0 .9.1 1.2.1.3.2.5.3.7.1.2.4.4.7.6l.9.7c.8.6 1.4 1.2 1.7 1.7s.4 1.3.4 2.3v1.2c0 2.7-1.1 4.1-3.3 4.1h-.1c-1.1 0-1.9-.3-2.4-1s-.8-1.7-.8-3.1v-2h2.3v1.8c0 .7.1 1.2.2 1.5.1.3.4.4.7.4h.1c.3 0 .5-.1.7-.4.1-.3.2-.8.2-1.5v-.5zm7.8 4.5v-13.8l-1.4.9-1-1.8 2.9-1.8h2V153h-2.5zm5.6 0v-13.8l-1.4.9-1-1.8 2.9-1.8h2V153H89zm5.7 2.5h-2.4L95 134h2.4l-2.7 21.5zm5.5-13.7H98v-1.9c0-1.2.3-2.1.8-2.7s1.3-.9 2.4-.9c1.1 0 1.9.3 2.4.9s.8 1.5.8 2.7v1.2c0 1-.1 1.9-.4 2.5-.2.6-.7 1.4-1.4 2.3l-1.1 1.4c-.4.5-.7 1-.8 1.3s-.2.8-.2 1.4v.8h3.9v2.3H98v-2.8c0-.7.1-1.3.2-1.8s.3-.9.5-1.4c.2-.4.6-1 1.1-1.5l1.1-1.4c.4-.5.7-1 .8-1.4.2-.4.2-.9.2-1.4V140c0-.9-.3-1.4-.8-1.4h-.1c-.3 0-.5.1-.6.3s-.2.6-.2 1.1v1.8zM7.9 166.7l-1.6 5.8H5.1l-2.2-7.6H4l1.7 6.4 1.7-5.9h1.1l1.7 6 1.7-6.5H13l-2.2 7.6H9.6l-1.7-5.8zm9.9 3.7h-3.2l-.8 2.1h-1l2.9-7.6h1.1l2.9 7.6h-1.1l-.8-2.1zm-2.9-.8h2.6l-1.3-3.5-1.3 3.5zm7.9-3.8v6.7h-1v-6.7h-2.6v-.9h6.2v.9h-2.6zm8.9 6.1c-.3.2-.6.4-1 .5-.4.1-.8.2-1.3.2-.6 0-1.1-.1-1.6-.3-.4-.2-.8-.5-1.1-.9s-.5-.8-.7-1.3c-.1-.5-.2-1-.2-1.5 0-.6.1-1.2.3-1.7.2-.5.4-.9.7-1.2.3-.3.7-.6 1.1-.8.4-.2.9-.3 1.5-.3.5 0 .9.1 1.2.2.4.1.7.3.9.5l-.5.8c-.2-.2-.5-.3-.7-.4s-.6-.1-.9-.1c-.8 0-1.5.3-1.9.8-.5.5-.7 1.3-.7 2.2 0 1 .2 1.7.7 2.2.5.5 1.1.8 1.9.8.4 0 .7 0 1-.1.3-.1.6-.2.8-.4l.5.8zm6.1.6v-3.4h-3.7v3.4h-1v-7.6h1v3.3h3.7v-3.3h1v7.6h-1zm8.6-6.7v6.7h-1v-6.7h-2.6v-.9H49v.9h-2.6zm8.5 6.7v-3.4h-3.7v3.4h-1v-7.6h1v3.3h3.7v-3.3h1v7.6h-1zm4-3.4v2.5h3.8v.9h-4.9v-7.6h4.9v.9h-3.8v2.5h3.2v.9h-3.2zm8.2-4.2l2.4 6.5 2.3-6.5h1.1l-2.9 7.6h-1.1l-2.9-7.6h1.1zm11.9 2.2c0 .3 0 .5-.1.8-.1.2-.2.5-.4.6s-.4.3-.6.5c-.2.1-.5.2-.7.2l2.4 3.3h-1.2l-1.9-2.8-.3-.3c-.1 0-.2-.1-.4-.1H75v3.1h-1v-7.6h2.5c.8 0 1.5.2 1.9.6.4.5.6 1 .6 1.7zm-1 0c0-.5-.1-.8-.4-1-.3-.2-.7-.3-1.2-.3H75v2.7h1.4c.5 0 .9-.1 1.2-.3.3-.2.4-.6.4-1.1zm10.5 0c0 .3 0 .5-.1.8-.1.2-.2.5-.4.6s-.4.3-.6.5c-.2.1-.5.2-.7.2l2.4 3.3h-1.2l-1.9-2.8-.3-.3c-.1 0-.2-.1-.4-.1h-.8v3.1h-1v-7.6H86c.8 0 1.5.2 1.9.6.3.5.6 1 .6 1.7zm-1.1 0c0-.5-.1-.8-.4-1-.3-.2-.7-.3-1.2-.3h-1.4v2.7h1.4c.5 0 .9-.1 1.2-.3.3-.2.4-.6.4-1.1zm3.7 2v2.5H95v.9h-4.9v-7.6H95v.9h-3.8v2.5h3.2v.9h-3.3zm10.7 2.8c-.3.2-.6.4-1 .5-.4.1-.8.2-1.3.2-.6 0-1.1-.1-1.6-.3-.4-.2-.8-.5-1.1-.9s-.5-.8-.7-1.3c-.1-.5-.2-1-.2-1.5 0-.6.1-1.2.3-1.7s.4-.9.7-1.2c.3-.3.7-.6 1.1-.8.4-.2.9-.3 1.5-.3.5 0 .9.1 1.2.2.4.1.7.3.9.5l-.5.8c-.2-.2-.5-.3-.7-.4s-.6-.1-.9-.1c-.8 0-1.5.3-1.9.8-.5.5-.7 1.3-.7 2.2 0 1 .2 1.7.7 2.2.5.5 1.1.8 1.9.8.4 0 .7 0 1-.1.3-.1.6-.2.8-.4l.5.8zm5.6-1.5h-3.2l-.8 2.1h-1l2.9-7.6h1.1l2.9 7.6h-1.1l-.8-2.1zm-3-.8h2.6l-1.3-3.5-1.3 3.5zm6.9 2.9h-1v-7.6h2.6c.8 0 1.5.2 1.9.6.5.4.7 1 .7 1.8s-.2 1.3-.7 1.8c-.5.4-1.1.6-1.9.6h-1.6v2.8zm0-3.6h1.5c.5 0 .9-.1 1.2-.4s.4-.6.4-1.2-.1-.9-.4-1.2c-.3-.2-.7-.4-1.2-.4h-1.5v3.2zM2.7 173.7v-.8h113.4v.8H2.7zM5.4 187.5c.7 0 1.2-.2 1.6-.7.4-.5.5-1.2.6-2.1-.2.3-.4.6-.8.8-.3.2-.7.3-1.2.3-.4 0-.7-.1-1-.2-.3-.1-.5-.3-.7-.5-.2-.2-.4-.5-.5-.8-.1-.3-.2-.6-.2-1s.1-.8.2-1.1c.1-.3.3-.6.5-.8.2-.2.5-.4.8-.5s.7-.2 1-.2c.4 0 .8.1 1.2.3.3.2.6.4.8.7.2.3.4.7.5 1.2s.2 1 .2 1.6c0 .6-.1 1.2-.2 1.7s-.3.9-.6 1.3-.6.6-1 .8c-.4.2-.8.3-1.4.3-.4 0-.8-.1-1.1-.2s-.7-.3-.9-.5l.4-.7c.2.2.5.3.8.4.5-.1.7-.1 1-.1zm-1.1-4.2c0 .5.1 1 .4 1.2.3.3.6.4 1.1.4.5 0 .9-.1 1.2-.4.3-.3.5-.7.5-1.3 0-.5-.1-1-.4-1.3s-.7-.5-1.1-.5c-.5 0-.9.2-1.2.5-.3.4-.5.8-.5 1.4zm10.1 2.9h-3.2l-.8 2.1h-1l2.9-7.6h1.1l2.9 7.6h-1.1l-.8-2.1zm-3-.9H14l-1.3-3.5-1.3 3.5zm6.9-3v5.9h-1v-7.6h1.1l2.5 4.5 2.5-4.5h1.1v7.6h-1v-6l-2.2 4h-.9l-2.1-3.9zm11.9 5.9h-1v-7.6h2.6c.8 0 1.5.2 1.9.6.5.4.7 1 .7 1.8s-.2 1.3-.7 1.8c-.5.4-1.1.6-1.9.6h-1.6v2.8zm0-3.6h1.5c.5 0 .9-.1 1.2-.4s.4-.6.4-1.2-.1-.9-.4-1.2c-.3-.2-.7-.4-1.2-.4h-1.5v3.2zm8.2-3.2c-.5 0-.9.1-1.2.3-.3.2-.5.5-.5.9 0 .3.1.5.2.7.2.2.4.3.9.5l1.4.4c.3.1.5.2.7.3.2.1.4.2.6.4.2.2.3.3.4.6.1.2.1.5.1.7 0 .3-.1.6-.2.9-.1.3-.3.5-.5.7-.2.2-.5.4-.9.5s-.7.2-1.2.2-1-.1-1.5-.2c-.5-.2-.9-.4-1.2-.7l.5-.7c.3.3.7.5 1 .6.4.1.7.2 1.2.2.6 0 1-.1 1.3-.3s.5-.5.5-1c0-.3-.1-.6-.3-.7-.2-.2-.5-.3-.8-.4l-1.4-.4c-.6-.2-1-.4-1.3-.7-.3-.3-.4-.7-.4-1.2 0-.3.1-.7.2-.9.1-.3.3-.5.6-.7.2-.2.5-.3.9-.4.3-.1.7-.1 1.1-.1.4 0 .9.1 1.3.2s.8.3 1.1.6l-.4.7c-.8-.8-1.5-1-2.2-1zm6.8.1v6.7h-1v-6.7h-2.6v-.9h6.2v.9h-2.6zm8.8 6.7v-6.3l-2 1-.4-.8 2.6-1.3h.8v7.4h-1zm6.6 0v-6.3l-2 1-.4-.8 2.6-1.3h.8v7.4h-1zm4.3 1.1h-1l3-9.8h1l-3 9.8zm8.4-6.7c0 .4-.1.8-.3 1.1-.2.3-.4.5-.7.7.9.3 1.3.8 1.3 1.8 0 .4-.1.7-.2.9-.1.3-.3.5-.5.7-.2.2-.5.3-.9.4-.3.1-.7.1-1.1.1-.5 0-.9-.1-1.3-.2s-.8-.3-1.1-.6l.5-.7c.3.2.6.4.9.5s.6.2 1 .2c.5 0 .9-.1 1.2-.3s.4-.6.4-1-.1-.8-.4-.9-.7-.3-1.2-.3h-1.1v-.8H71c.2 0 .4 0 .6-.1.2-.1.3-.2.4-.3.1-.1.2-.3.2-.4.1-.2.1-.3.1-.5 0-.4-.1-.7-.4-.9s-.6-.3-1-.3c-.3 0-.6 0-.9.1-.3.1-.6.2-.8.4l-.4-.7c.3-.2.6-.4 1-.5.4-.1.8-.2 1.2-.2.7 0 1.3.2 1.7.5.4.3.6.7.6 1.3z"/><path class="st0" d="M2.7 189.4v-.8h71.8v.8H2.7z"/></svg>