<svg id="Capa_1" xmlns="http://www.w3.org/2000/svg" xmlns:xlink="http://www.w3.org/1999/xlink" viewBox="0 0 106.6 32.5"><style>.st0{fill:#fff}</style><g id="_x33_00x250.psd"><image width="300" height="250" id="_x33_00x250_2_" xlink:href="7D53C115332A0F32.jpg" transform="translate(-17.45 194.428)" overflow="visible"/></g><path class="st0" d="M4.9-31.6v27.2H.2v-27.2h-4.3V-36H9.2v4.4H4.9zM19.7-4.4v-13.8h-4v13.8H11V-36h4.7v13.4h4V-36h4.7v31.6h-4.7zm12.2-13.7v9.3h6.3v4.4h-11V-36h10.7v4.4h-6v9.1h4.8v4.4h-4.8zm18 .4v13.3h-4.7V-36h10.2v4.4h-5.5v9.5h4.5v4.4h-4.5zM62.1-4.4h-4.7V-36h4.7v31.6zm7.5-13.7v9.3h6.3v4.4h-11V-36h10.7v4.4h-6v9.1h4.8v4.4h-4.8zm13 9.3h5.9v4.4H77.9V-36h4.7v27.2zm21-4.8c0 2.3-.3 4.1-.8 5.4-.5 1.3-1.3 2.3-2.4 2.8-1.1.6-2.5.9-4.4.9h-5.8V-36H96c1.9 0 3.4.3 4.5.9 1.1.6 1.8 1.6 2.3 2.9.5 1.3.7 3.1.7 5.3v13.3zm-4.8-13.1c0-1.9-.2-3.2-.6-3.9-.4-.7-1.1-1-2.2-1h-1v23h1c1.1 0 1.8-.3 2.2-1 .4-.7.6-2 .6-3.9v-13.2zM4.7 32H0V.5h4.7V32zm10.1-8.6c0-1.4-.1-2.4-.4-3-.3-.6-.8-1.3-1.7-1.9L11 17.2c-1.6-1.1-2.6-2.2-3.2-3.4-.6-1.1-.8-2.7-.8-4.7V7.5c0-2.6.5-4.5 1.5-5.7C9.5.6 11.1 0 13.2 0h.3c2 0 3.5.6 4.5 1.8 1 1.2 1.4 3.1 1.4 5.7v3.2H15V8c0-1.3-.1-2.3-.3-2.7-.2-.5-.6-.7-1.3-.7h-.2c-.6 0-1 .3-1.3.8-.2.5-.4 1.4-.4 2.7v.6c0 1 .1 1.7.2 2.2.1.5.3.9.6 1.3s.7.7 1.3 1.2l1.8 1.3c1.6 1.1 2.6 2.2 3.2 3.3.5 1.1.8 2.7.8 4.6v2.3c0 5.2-2.1 7.7-6.2 7.7h-.3c-2 0-3.6-.6-4.5-1.9-1-1.2-1.5-3.2-1.5-5.9V21h4.4v3.4c0 1.4.1 2.4.4 2.9.3.4.7.7 1.3.7h.2c.6 0 1-.3 1.3-.8.2-.5.3-1.5.3-2.9v-.9zm20.1-3.6V32h-4.7V19.8L25.2.4h4.9l.9 4.8 1.6 8.8 1.7-8.8 1-4.8h4.8l-5.2 19.4zm5.6-11c0-3 .5-5.2 1.6-6.7C43.1.7 44.7 0 47 0h.8c2.2 0 3.9.7 4.9 2.1 1.1 1.4 1.6 3.6 1.6 6.7v14.9c0 3-.5 5.2-1.6 6.7-1.1 1.4-2.7 2.1-4.9 2.1H47c-2.2 0-3.9-.7-4.9-2.1-1.1-1.4-1.6-3.6-1.6-6.7V8.8zm9 .4c0-1.8-.1-3-.4-3.7-.3-.7-.8-1-1.6-1h-.3c-.8 0-1.3.3-1.6 1-.3.7-.4 1.9-.4 3.7v14.1c0 1.8.1 3 .4 3.7.3.7.8 1 1.6 1h.3c.8 0 1.3-.3 1.6-1 .3-.7.4-1.9.4-3.7V9.2zM65.2.5h4.7v23.8c0 2.9-.5 5-1.6 6.3-1 1.3-2.7 2-4.9 2H63c-2.2 0-3.9-.7-4.9-2-1-1.3-1.6-3.4-1.6-6.3V.5h4.7v23.3c0 1.6.1 2.7.4 3.3.3.6.7.9 1.4.9h.2c.7 0 1.2-.3 1.4-.9.3-.6.4-1.7.4-3.3V.5zM85.4 12c0 2.8-.9 4.5-2.8 5.3.9.4 1.4 1.3 1.6 2.5L86.3 32h-4.9l-1.7-10.8c-.1-.8-.3-1.3-.6-1.5-.3-.3-.7-.4-1.3-.4h-.7V32h-4.6V.5h6.2c2.3 0 4 .5 5.1 1.6 1.1 1.1 1.6 2.8 1.6 5.1V12zm-4.7-4.5c0-1-.2-1.7-.5-2.1-.4-.4-1-.6-1.8-.6h-1.1v10.5h1.1c.8 0 1.4-.2 1.8-.7.4-.5.6-1.2.6-2.3V7.5zm14.5 15.9c0-1.4-.1-2.4-.4-3-.3-.6-.8-1.3-1.7-1.9l-1.7-1.2c-1.6-1.1-2.6-2.2-3.2-3.4-.6-1.1-.8-2.7-.8-4.7V7.5c0-2.6.5-4.5 1.5-5.7C89.9.6 91.5 0 93.6 0h.3c2 0 3.5.6 4.5 1.8 1 1.2 1.4 3.1 1.4 5.7v3.2h-4.4V8c0-1.3-.1-2.3-.3-2.7-.2-.5-.6-.7-1.3-.7h-.2c-.6 0-1 .3-1.3.8-.2.4-.3 1.3-.3 2.6v.6c0 1 .1 1.7.2 2.2.1.5.3.9.6 1.3s.7.7 1.3 1.2l1.8 1.3c1.6 1.1 2.6 2.2 3.2 3.3.5 1.1.8 2.7.8 4.6v2.3c0 5.2-2.1 7.7-6.2 7.7h-.3c-2 0-3.6-.6-4.5-1.9-1-1.2-1.5-3.2-1.5-5.9v-3.8h4.4v3.4c0 1.4.1 2.4.4 2.9.2.5.7.8 1.3.8h.2c.6 0 1-.3 1.3-.8.2-.5.3-1.5.3-2.9v-.9zm6.5 8.6v-5.5h4.8V32h-4.8zM6.2 113.3c0 1.3-.3 2.2-.9 2.8-.6.6-1.5.9-2.6.9H-.6v-16.6h3.2c1.2 0 2.1.3 2.7.9.5.6.8 1.5.8 2.8v1.8c0 1.4-.5 2.2-1.5 2.6.6.2 1 .5 1.2 1s.4 1.1.4 1.9v1.9zm-4.5-5.7h.6c.5 0 .8-.1 1-.4.2-.2.3-.7.3-1.2v-1.7c0-.6-.1-1-.3-1.2-.2-.2-.5-.3-1-.3h-.6v4.8zm0 7.2h.6c.5 0 .8-.1 1.1-.3.2-.2.3-.6.3-1.2v-1.8c0-.6-.1-1.1-.3-1.3-.2-.2-.6-.4-1.1-.4h-.6v5zm8.1 2.3H7.3v-16.6h2.5v16.6zm4-2.3h3.1v2.3h-5.6v-16.6h2.5v14.3zm6.5 0h3.1v2.3h-5.6v-16.6h2.5v14.3zm7.9-2.3c0-.7-.1-1.3-.2-1.6-.1-.3-.4-.7-.9-1l-.9-.6c-.8-.6-1.4-1.2-1.7-1.8-.3-.6-.4-1.4-.4-2.5v-.8c0-1.3.3-2.3.8-3 .5-.6 1.4-1 2.5-1h.1c1.1 0 1.9.3 2.4 1 .5.6.8 1.6.8 3v1.7h-2.3v-1.4c0-.7-.1-1.2-.2-1.4-.1-.3-.3-.4-.7-.4h-.1c-.3 0-.5.1-.7.4-.1.3-.2.7-.2 1.4v.3c0 .5 0 .9.1 1.2.1.3.2.5.3.7.1.2.4.4.7.6l.9.7c.8.6 1.4 1.2 1.7 1.7s.4 1.4.4 2.4v1.2c0 2.7-1.1 4.1-3.3 4.1h-.1c-1.1 0-1.9-.3-2.4-1s-.8-1.7-.8-3.1v-2h2.3v1.8c0 .7.1 1.2.2 1.5.1.3.4.4.7.4h.1c.3 0 .5-.1.7-.4.1-.3.2-.8.2-1.5v-.6zm8.1 0l.6-5.1h1.4l-1.4 9.7h-1.7l-1.4-9.7h1.5l.6 5.1.3 2.3.1-2.3zm4.6 1.9c0-.4 0-.7-.1-.9-.1-.2-.3-.4-.5-.6l-.5-.4c-.5-.3-.8-.7-1-1-.2-.4-.3-.8-.3-1.4v-.5c0-.8.2-1.4.5-1.7s.8-.6 1.5-.6h.1c.6 0 1.1.2 1.4.6.3.4.4 1 .4 1.7v1H41v-.8c0-.4 0-.7-.1-.8-.1-.1-.2-.2-.4-.2h-.1c-.2 0-.3.1-.4.2-.1.2-.1.4-.1.8v.2c0 .3 0 .5.1.7 0 .1.1.3.2.4l.4.4.5.4c.5.3.8.7 1 1 .2.3.3.8.3 1.4v.7c0 1.6-.6 2.4-1.9 2.4h-.1c-.6 0-1.1-.2-1.4-.6s-.4-1-.4-1.8v-1.2H40v1c0 .4 0 .7.1.9.1.2.2.2.4.2h.1c.2 0 .3-.1.4-.2.1-.2.1-.5.1-.9v-.4zm10.9-13.9v12.9c0 1.3-.3 2.3-.8 3-.5.6-1.3.9-2.4.9h-.1c-1.1 0-1.8-.3-2.3-.9-.5-.6-.7-1.6-.7-3v-2.2h2.3v2c0 .7 0 1.1.1 1.4.1.2.3.4.6.4h.1c.3 0 .5-.1.6-.4.1-.3.2-.7.2-1.3v-12.8h2.4zm3.9 9.4v4.9H59v2.3h-5.8v-16.6h5.6v2.3h-3.2v4.8h2.5v2.3h-2.4zm8.8-7.1v14.3H62v-14.3h-2.3v-2.3h7v2.3h-2.2zm7 9.7c0-.7-.1-1.3-.2-1.6-.1-.3-.4-.7-.9-1l-.9-.6c-.8-.6-1.4-1.2-1.7-1.8-.3-.6-.4-1.4-.4-2.5v-.8c0-1.3.3-2.3.8-3 .5-.6 1.4-1 2.5-1h.1c1.1 0 1.9.3 2.4 1 .5.6.8 1.6.8 3v1.7h-2.3v-1.4c0-.7-.1-1.2-.2-1.4-.1-.3-.3-.4-.7-.4h-.1c-.3 0-.5.1-.7.4-.1.3-.2.7-.2 1.4v.3c0 .5 0 .9.1 1.2.1.3.2.5.3.7.1.2.4.4.7.6l.9.7c.8.6 1.4 1.2 1.7 1.7s.4 1.4.4 2.4v1.2c0 2.7-1.1 4.1-3.3 4.1h-.1c-1.1 0-1.9-.3-2.4-1s-.8-1.7-.8-3.1v-2h2.3v1.8c0 .7.1 1.2.2 1.5.1.3.4.4.7.4h.1c.3 0 .5-.1.7-.4.1-.3.2-.8.2-1.5v-.6zm7.7 4.6v-13.8l-1.4.9-1-1.8 2.9-1.8h2v16.6h-2.5zm5.6 0v-13.8l-1.4.9-1-1.8 2.9-1.8h2v16.6h-2.5zm5.8 2.4h-2.4L90.9 98h2.4l-2.7 21.5zm5.5-13.7h-2.2v-1.9c0-1.2.3-2.1.8-2.7s1.3-.9 2.4-.9c1.1 0 1.9.3 2.4.9s.8 1.5.8 2.7v1.2c0 1-.1 1.9-.4 2.5-.2.6-.7 1.4-1.4 2.3l-1.1 1.4c-.4.5-.7 1-.8 1.3s-.2.8-.2 1.4v.8h3.9v2.3H94v-2.8c0-.7.1-1.3.2-1.8s.3-.9.5-1.4c.2-.4.6-1 1.1-1.5l1.1-1.4c.4-.5.7-1 .8-1.4.2-.4.2-.9.2-1.4V104c0-.9-.3-1.4-.8-1.4H97c-.3 0-.5.1-.6.3s-.2.6-.2 1.1v1.8zM3.8 130.8l-1.6 5.8H1l-2.2-7.6h1.1l1.7 6.4 1.7-5.9h1.1l1.7 6 1.7-6.5h1.1l-2.2 7.6H5.5l-1.7-5.8zm9.9 3.7h-3.2l-.8 2.1h-1l2.9-7.6h1.1l2.9 7.6h-1.1l-.8-2.1zm-3-.9h2.6l-1.3-3.5-1.3 3.5zm8-3.8v6.7h-1v-6.7h-2.6v-.8h6.2v.9h-2.6zm8.8 6.2c-.3.2-.6.4-1 .5-.4.1-.8.2-1.3.2-.6 0-1.1-.1-1.6-.3-.4-.2-.8-.5-1.1-.9s-.5-.8-.7-1.3c-.1-.5-.2-1-.2-1.5 0-.6.1-1.2.3-1.7.2-.5.4-.9.7-1.2.3-.3.7-.6 1.1-.8.4-.2.9-.3 1.5-.3.5 0 .9.1 1.2.2.4.1.7.3.9.5l-.5.8c-.2-.2-.5-.3-.7-.4s-.6-.1-.9-.1c-.8 0-1.5.3-1.9.8-.5.5-.7 1.3-.7 2.2 0 1 .2 1.7.7 2.2.5.5 1.1.8 1.9.8.4 0 .7 0 1-.1.3-.1.6-.2.8-.4l.5.8zm6.2.6v-3.4H30v3.4h-1V129h1v3.3h3.7V129h1v7.6h-1zm8.5-6.8v6.7h-1v-6.7h-2.6v-.8h6.2v.9h-2.6zm8.6 6.8v-3.4H47v3.4h-1V129h1v3.3h3.7V129h1v7.6h-.9zm4-3.4v2.5h3.8v.9h-4.9V129h4.9v.9h-3.8v2.5H58v.9h-3.2zM63 129l2.4 6.5 2.3-6.5h1.1l-2.9 7.6h-1.1l-2.9-7.6H63zm11.9 2.1c0 .3 0 .5-.1.8-.1.2-.2.5-.4.6s-.4.3-.6.5c-.2.1-.5.2-.7.2l2.4 3.3h-1.2l-1.9-2.8-.3-.3c-.1 0-.2-.1-.4-.1h-.8v3.1h-1V129h2.5c.8 0 1.5.2 1.9.6.4.3.6.8.6 1.5zm-1 .1c0-.5-.1-.8-.4-1-.3-.2-.7-.3-1.2-.3h-1.4v2.7h1.4c.5 0 .9-.1 1.2-.3.2-.3.4-.6.4-1.1zm10.4-.1c0 .3 0 .5-.1.8-.1.2-.2.5-.4.6s-.4.3-.6.5c-.2.1-.5.2-.7.2l2.4 3.3h-1.2l-1.9-2.8-.3-.3c-.1 0-.2-.1-.4-.1h-.8v3.1h-1V129h2.5c.8 0 1.5.2 1.9.6.4.3.6.8.6 1.5zm-1 .1c0-.5-.1-.8-.4-1-.3-.2-.7-.3-1.2-.3h-1.4v2.7h1.4c.5 0 .9-.1 1.2-.3.2-.3.4-.6.4-1.1zm3.7 2v2.5h3.8v.9H86V129h4.9v.9H87v2.5h3.2v.9H87zm10.6 2.8c-.3.2-.6.4-1 .5-.4.1-.8.2-1.3.2-.6 0-1.1-.1-1.6-.3-.4-.2-.8-.5-1.1-.9s-.5-.8-.7-1.3c-.1-.5-.2-1-.2-1.5 0-.6.1-1.2.3-1.7s.4-.9.7-1.2c.3-.3.7-.6 1.1-.8.4-.2.9-.3 1.5-.3.5 0 .9.1 1.2.2.4.1.7.3.9.5l-.5.8c-.2-.2-.5-.3-.7-.4s-.6-.1-.9-.1c-.8 0-1.5.3-1.9.8-.5.5-.7 1.3-.7 2.2 0 1 .2 1.7.7 2.2.5.5 1.1.8 1.9.8.4 0 .7 0 1-.1.3-.1.6-.2.8-.4l.5.8zm5.6-1.5H100l-.8 2.1h-1l2.9-7.6h1.1l2.9 7.6H104l-.8-2.1zm-2.9-.9h2.6l-1.3-3.5-1.3 3.5zm6.9 3h-1V129h2.6c.8 0 1.5.2 1.9.6.5.4.7 1 .7 1.8s-.2 1.3-.7 1.8c-.5.4-1.1.6-1.9.6h-1.6v2.8zm0-3.7h1.5c.5 0 .9-.1 1.2-.4s.4-.6.4-1.2-.1-.9-.4-1.2c-.3-.2-.7-.4-1.2-.4h-1.5v3.2zm-108.6 4.8v-.8H112v.8H-1.4zM1.3 151.6c.7 0 1.2-.2 1.6-.7.4-.5.5-1.2.6-2.1-.2.3-.4.6-.8.8-.3.2-.7.3-1.2.3-.4 0-.7-.1-1-.2-.3-.1-.5-.3-.7-.5-.2-.2-.4-.5-.5-.8-.1-.3-.2-.6-.2-1s.1-.8.2-1.1c.1-.3.3-.6.5-.8.2-.2.5-.4.8-.5s.7-.2 1-.2c.4 0 .8.1 1.2.3.3.2.6.4.8.7.2.3.4.7.5 1.2s.2 1 .2 1.6c0 .6-.1 1.2-.2 1.7s-.3.9-.6 1.3-.6.6-1 .8c-.4.2-.8.3-1.4.3-.4 0-.8-.1-1.1-.2s-.7-.3-.9-.5l.4-.7c.2.2.5.3.8.4.4-.2.7-.1 1-.1zm-1.1-4.3c0 .5.1 1 .4 1.2.3.3.6.4 1.1.4.5 0 .9-.1 1.2-.4.3-.3.5-.7.5-1.3 0-.5-.1-1-.4-1.3s-.7-.5-1.1-.5c-.5 0-.9.2-1.2.5-.4.4-.5.9-.5 1.4zm10 2.9H7l-.8 2.1h-1l2.9-7.6h1.1l2.9 7.6H11l-.8-2.1zm-2.9-.9h2.6l-1.3-3.5-1.3 3.5zm6.9-2.9v5.9h-1v-7.6h1.1l2.5 4.5 2.5-4.5h1.1v7.6h-1v-6l-2.2 4h-.9l-2.1-3.9zm11.9 5.9h-1v-7.6h2.6c.8 0 1.5.2 1.9.6.5.4.7 1 .7 1.8s-.2 1.3-.7 1.8c-.5.4-1.1.6-1.9.6h-1.6v2.8zm0-3.7h1.5c.5 0 .9-.1 1.2-.4s.4-.6.4-1.2-.1-.9-.4-1.2c-.3-.2-.7-.4-1.2-.4h-1.5v3.2zm8.1-3.2c-.5 0-.9.1-1.2.3-.3.2-.5.5-.5.9 0 .3.1.5.2.7.2.2.4.3.9.5l1.4.4c.3.1.5.2.7.3.2.1.4.2.6.4.2.2.3.3.4.6.1.2.1.5.1.7 0 .3-.1.6-.2.9-.1.3-.3.5-.5.7-.2.2-.5.4-.9.5s-.7.2-1.2.2-1-.1-1.5-.2c-.5-.2-.9-.4-1.2-.7l.5-.7c.3.3.7.5 1 .6.4.1.7.2 1.2.2.6 0 1-.1 1.3-.3s.5-.5.5-1c0-.3-.1-.6-.3-.7-.2-.2-.5-.3-.8-.4l-1.4-.4c-.6-.2-1-.4-1.3-.7-.3-.3-.4-.7-.4-1.2 0-.3.1-.7.2-.9.1-.3.3-.5.6-.7.2-.2.5-.3.9-.4.3-.1.7-.1 1.1-.1.4 0 .9.1 1.3.2s.8.3 1.1.6l-.4.7c-.8-.8-1.4-1-2.2-1zm6.9.2v6.7h-1v-6.7h-2.6v-.9h6.2v.9h-2.6zm8.8 6.7V146l-2 1-.4-.8 2.6-1.3h.8v7.4h-1zm6.5 0V146l-2 1-.4-.8 2.6-1.3h.8v7.4h-1zm4.3 1.1h-1l3-9.8h1l-3 9.8zm8.5-6.7c0 .4-.1.8-.3 1.1-.2.3-.4.5-.7.7.9.3 1.3.8 1.3 1.8 0 .4-.1.7-.2.9-.1.3-.3.5-.5.7-.2.2-.5.3-.9.4-.3.1-.7.1-1.1.1-.5 0-.9-.1-1.3-.2s-.8-.3-1.1-.6l.5-.7c.3.2.6.4.9.5s.6.2 1 .2c.5 0 .9-.1 1.2-.3s.4-.6.4-1-.1-.8-.4-.9-.7-.3-1.2-.3h-1.1v-.8h1.1c.2 0 .4 0 .6-.1.2-.1.3-.2.4-.3.1-.1.2-.3.2-.4.1-.2.1-.3.1-.5 0-.4-.1-.7-.4-.9s-.6-.3-1-.3c-.3 0-.6 0-.9.1-.3.1-.6.2-.8.4l-.4-.7c.3-.2.6-.4 1-.5.4-.1.8-.2 1.2-.2.7 0 1.3.2 1.7.5.5.2.7.7.7 1.3z"/><path class="st0" d="M-1.4 153.5v-.8h71.8v.8H-1.4z"/></svg>