<svg id="Capa_1" xmlns="http://www.w3.org/2000/svg" viewBox="0 0 100.8 21.5"><style>.st0{fill:#fff}</style><path class="st0" d="M6.8 15.3c0 1.3-.3 2.2-.9 2.8-.5.6-1.4.9-2.6.9H0V2.4h3.2c1.2 0 2.1.3 2.7.9.5.6.8 1.5.8 2.8v1.8c0 1.4-.5 2.2-1.5 2.6.6.2 1 .5 1.2 1s.4 1.1.4 1.9v1.9zM2.4 9.6H3c.5 0 .8-.1 1-.4.1-.2.2-.6.2-1.2V6.2c0-.6-.1-1-.3-1.2-.2-.2-.5-.3-.9-.3h-.6v4.9zm0 7.2H3c.5 0 .8-.1 1.1-.3.2-.2.3-.6.3-1.2v-1.8c0-.6-.1-1.1-.3-1.3-.2-.2-.6-.4-1.1-.4h-.6v5zm8.1 2.2H8V2.4h2.5V19zm3.9-2.3h3.1V19H12V2.4h2.5v14.3h-.1zm6.6 0h3.1V19h-5.6V2.4H21v14.3zm7.9-2.2c0-.7-.1-1.3-.2-1.6s-.4-.7-.9-1l-.9-.6c-.8-.6-1.4-1.2-1.7-1.8-.3-.6-.4-1.5-.4-2.5v-.9c0-1.3.3-2.3.8-3 .5-.6 1.4-1 2.5-1h.1c1.1 0 1.9.3 2.4 1 .5.6.8 1.6.8 3v1.7H29V6.4c0-.7-.1-1.2-.2-1.4-.1-.3-.3-.4-.7-.4H28c-.3 0-.5.1-.7.4-.1.3-.2.7-.2 1.4v.3c0 .5 0 .9.1 1.2s.2.5.3.7c.1.2.4.4.7.6l.9.7c.8.6 1.4 1.2 1.7 1.7s.4 1.4.4 2.4v1.2c0 2.7-1.1 4.1-3.3 4.1h-.1c-1.1 0-1.9-.3-2.4-1s-.8-1.7-.8-3.1v-2h2.3V15c0 .7.1 1.2.2 1.5s.4.4.7.4h.2c.3 0 .5-.1.7-.4.1-.3.2-.8.2-1.5v-.5zm8-.1l.6-5.1H39L37.5 19h-1.7l-1.4-9.7h1.5l.6 5.1.3 2.3.1-2.3zm4.7 2c0-.4 0-.7-.1-.9s-.3-.4-.5-.6l-.5-.4c-.5-.3-.8-.7-1-1-.2-.4-.3-.8-.3-1.4v-.5c0-.8.2-1.4.5-1.7s.8-.6 1.5-.6h.1c.6 0 1.1.2 1.4.6.3.4.4 1 .4 1.7v1h-1.4v-.8c0-.4 0-.7-.1-.8s-.2-.2-.4-.2h-.1c-.2 0-.3.1-.4.2-.1.2-.1.4-.1.8v.2c0 .3 0 .5.1.7 0 .1.1.3.2.4l.4.4.5.4c.5.3.8.7 1 1s.3.8.3 1.4v.7c0 1.6-.6 2.4-1.9 2.4H41c-.6 0-1.1-.2-1.4-.6s-.4-1-.4-1.8v-1.2h1.4v1c0 .4 0 .7.1.9.1.2.2.2.4.2h.1c.2 0 .3-.1.4-.2.1-.2.1-.5.1-.9l-.1-.4zm10.9-14v12.9c0 1.3-.3 2.3-.8 3-.5.6-1.3.9-2.4.9h-.1c-1.1 0-1.8-.3-2.3-.9s-.7-1.6-.7-3v-2.2h2.3v2c0 .7 0 1.1.1 1.4.1.2.3.4.6.4h.1c.3 0 .5-.1.6-.4s.2-.7.2-1.3V2.4h2.4zm3.8 9.4v4.9h3.3V19h-5.8V2.4h5.6v2.3h-3.2v4.8h2.5v2.3h-2.4zm8.9-7V19h-2.5V4.8h-2.3V2.4h7v2.3h-2.2v.1zm6.9 9.7c0-.7-.1-1.3-.2-1.6s-.4-.7-.9-1l-.9-.6c-.8-.6-1.4-1.2-1.7-1.8C68.2 8.9 68 8 68 7v-.9c0-1.3.3-2.3.8-3 .5-.6 1.4-1 2.5-1h.1c1.1 0 1.9.3 2.4 1 .5.6.8 1.6.8 3v1.7h-2.3V6.4c0-.7-.1-1.2-.2-1.4-.1-.3-.3-.4-.7-.4h-.1c-.3 0-.5.1-.7.4-.1.3-.2.7-.2 1.4v.3c0 .5 0 .9.1 1.2s.2.5.3.7c.1.2.4.4.7.6l.9.7c.8.6 1.4 1.2 1.7 1.7s.4 1.4.4 2.4v1.2c0 2.7-1.1 4.1-3.3 4.1h-.1c-1.1 0-1.9-.3-2.4-1s-.8-1.7-.8-3.1v-2h2.3V15c0 .7.1 1.2.2 1.5s.4.4.7.4h.1c.3 0 .5-.1.7-.4.1-.3.2-.8.2-1.5v-.5zm7.8 4.5V5.2l-1.4.9-1-1.8 2.9-1.8h2V19h-2.5zm5.6 0V5.2l-1.4.9-1-1.8L86 2.5h2V19h-2.5zm5.8 2.5h-2.4L91.5 0H94l-2.7 21.5zm5.4-13.7h-2.2v-2c0-1.2.3-2.1.8-2.7s1.3-.9 2.4-.9 1.9.3 2.4.9.8 1.5.8 2.7V7c0 1-.1 1.9-.4 2.5-.2.6-.7 1.4-1.4 2.3L98 13.2c-.4.5-.7 1-.8 1.3s-.2.8-.2 1.4v.8h3.9V19h-6.3v-2.8c0-.7.1-1.3.2-1.8s.3-.9.5-1.4c.2-.4.6-1 1.1-1.5l1.1-1.4c.4-.5.7-1 .8-1.4.2-.4.2-.9.2-1.4V5.9c0-.9-.3-1.4-.8-1.4h-.1c-.3 0-.5.1-.6.3s-.2.6-.2 1.1l-.1 1.9z"/></svg>