<svg id="Capa_1" xmlns="http://www.w3.org/2000/svg" viewBox="0 0 113.4 8.9"><style>.st0{fill:#fff}</style><path class="st0" d="M5.2 2L3.5 7.7H2.4L.2.2h1.1L3 6.6 4.7.7h1.1l1.7 6L9.2.2h1.1L8 7.7H6.9L5.2 2zm9.9 3.6h-3.2l-.8 2.1h-1L13 .2h1l2.9 7.6h-1.1l-.7-2.2zm-2.9-.8h2.6l-1.3-3.5-1.3 3.5zM20.1 1v6.7h-1V1h-2.6V.2h6.2V1h-2.6zM29 7.2c-.3.2-.6.4-1 .5s-.8.2-1.3.2c-.6 0-1.1-.1-1.6-.3-.4-.2-.8-.5-1.1-.9s-.6-.7-.7-1.2-.2-1-.2-1.5c0-.6.1-1.2.3-1.7.2-.5.4-.9.7-1.2.3-.3.7-.6 1.1-.8.5-.2 1-.3 1.5-.3s.9.1 1.2.2c.4.1.7.3.9.5l-.5.8c-.2-.2-.5-.3-.7-.4S27 1 26.7 1c-.8 0-1.5.3-1.9.8-.5.5-.7 1.3-.7 2.2 0 1 .2 1.7.7 2.2.5.5 1.1.8 1.9.8.4 0 .7 0 1-.1s.6-.2.8-.4l.5.7zm6.1.5V4.3h-3.7v3.4h-1V.2h1v3.3h3.7V.2h1v7.6l-1-.1zM43.7 1v6.7h-1V1H40V.2h6.2V1h-2.5zm8.5 6.7V4.3h-3.7v3.4h-1V.2h1v3.3h3.7V.2h1v7.6l-1-.1zm4-3.3v2.5H60v.9h-4.9V.2H60V1h-3.8v2.5h3.2v.9h-3.2zM64.4.2l2.4 6.5L69.1.2h1.1l-2.9 7.6h-1.1L63.3.2h1.1zm11.9 2.1c0 .3 0 .5-.1.8-.1.2-.2.5-.4.6s-.4.3-.6.5c-.2.1-.5.2-.7.2l2.4 3.3h-1.2l-2-2.7-.3-.3c-.1 0-.2-.1-.4-.1h-.8v3.1h-1V.2h2.5c.8 0 1.5.2 1.9.6.5.3.7.8.7 1.5zm-1 .1c0-.5-.1-.8-.4-1-.3-.3-.7-.4-1.2-.4h-1.4v2.7h1.4c.5 0 .9-.1 1.2-.3.3-.2.4-.6.4-1zm10.4-.1c0 .3 0 .5-.1.8-.1.2-.2.5-.4.6s-.4.3-.6.5c-.2.1-.5.2-.7.2l2.4 3.3H85L83.1 5l-.3-.3c-.1 0-.2-.1-.4-.1h-.8v3.1h-1V.2h2.5c.8 0 1.5.2 1.9.6.5.3.7.8.7 1.5zm-1 .1c0-.5-.1-.8-.4-1-.2-.3-.7-.4-1.2-.4h-1.4v2.7H83c.5 0 .9-.1 1.2-.3.4-.2.5-.6.5-1zm3.7 2v2.5h3.8v.9h-4.9V.2h4.9V1h-3.8v2.5h3.2v.9h-3.2zm10.7 2.8c-.3.2-.6.4-1 .5s-.8.2-1.3.2c-.6 0-1.1-.1-1.6-.3-.4-.2-.8-.5-1.1-.9s-.6-.7-.7-1.2-.2-1-.2-1.5c0-.6.1-1.2.3-1.7s.4-.9.7-1.2c.3-.3.7-.6 1.1-.8.5-.2 1-.3 1.5-.3s.9.1 1.2.2c.4.1.7.3.9.5l-.5.8c-.2-.2-.5-.3-.7-.4s-.6-.1-.9-.1c-.8 0-1.5.3-1.9.8-.5.5-.7 1.3-.7 2.2 0 1 .2 1.7.7 2.2s1.1.8 1.9.8c.4 0 .7 0 1-.1s.6-.2.8-.4l.5.7zm5.5-1.6h-3.2l-.8 2.1h-1l2.9-7.6h1.1l2.9 7.6h-1.1l-.8-2.1zm-2.9-.8h2.6L103 1.3l-1.3 3.5zm6.9 2.9h-1V.2h2.6c.8 0 1.5.2 1.9.6.5.4.7 1 .7 1.8s-.2 1.3-.7 1.8c-.4.4-1.1.6-1.9.6h-1.6v2.7zm0-3.6h1.5c.5 0 .9-.1 1.2-.4s.4-.6.4-1.2-.1-.9-.4-1.2c-.3-.2-.7-.4-1.2-.4h-1.5v3.2zM0 8.9v-.8h113.4v.8H0z"/></svg>