<svg id="Capa_1" xmlns="http://www.w3.org/2000/svg" viewBox="0 0 71.8 9.9"><style>.st0{fill:#fff}</style><path class="st0" d="M2.7 8c.7 0 1.3-.2 1.6-.7.4-.5.5-1.2.6-2.1-.2.3-.4.6-.8.8-.3.2-.7.3-1.2.3-.4 0-.7-.1-1-.2-.2-.1-.5-.3-.7-.5-.2-.2-.3-.5-.4-.8-.1-.3-.2-.6-.2-1s.1-.8.2-1.1.3-.6.5-.8.5-.4.8-.5.7-.2 1-.2c.4 0 .8.1 1.2.3.3.2.6.4.8.7.2.3.4.7.5 1.2s.2 1 .2 1.6-.1 1.2-.2 1.7-.3.8-.5 1.1-.6.6-1 .8-.8.3-1.3.3c-.4 0-.8-.1-1.2-.2s-.7-.3-.9-.5l.4-.7c.2.2.5.3.8.4.2.1.5.1.8.1zM1.6 3.7c0 .5.1 1 .4 1.2.3.3.6.4 1.1.4.5.1.9 0 1.2-.3s.5-.7.5-1.3c0-.5-.1-1-.4-1.3S3.7 2 3.2 2s-.9.2-1.2.5-.4.7-.4 1.2zm10.1 2.9H8.4l-.7 2.1h-1l2.9-7.6h1.1l2.9 7.6h-1.1l-.8-2.1zm-3-.8h2.6L10 2.3 8.7 5.8zm6.9-3v5.9h-1V1.2h1.1l2.5 4.5 2.5-4.5h1.1v7.6h-1v-6l-2.2 4h-.9l-2.1-4zm11.9 5.9h-1V1.2h2.6c.8 0 1.5.2 1.9.6.5.4.7 1 .7 1.8s-.2 1.3-.7 1.8c-.4.3-1.1.6-1.9.6h-1.6v2.7zm0-3.6H29c.5 0 .9-.1 1.2-.4s.4-.6.4-1.2-.1-.9-.4-1.2C30 2.2 29.6 2 29 2h-1.5v3.1zm8.2-3.2c-.5 0-.9.1-1.2.3s-.5.5-.5.9c0 .3.1.5.2.7.1.2.4.3.8.5l1.4.4c.3.1.5.2.7.3.2.1.4.2.6.4.2.2.3.3.4.6.1.2.1.5.1.7 0 .3-.1.6-.2.9-.1.3-.3.5-.5.7s-.5.4-.9.5-.7.2-1.2.2-1-.1-1.5-.2c-.5-.3-.9-.5-1.2-.8l.5-.7c.3.3.7.5 1 .6.4 0 .7.1 1.2.1.6 0 1-.1 1.3-.3s.5-.5.5-1c0-.3-.1-.6-.3-.7-.2-.2-.5-.3-.8-.4l-1.4-.4c-.6-.2-1-.4-1.3-.7-.3-.3-.4-.7-.4-1.2 0-.3.1-.7.2-.9.1-.3.3-.5.6-.7.2-.2.5-.3.9-.4.1-.3.5-.3.9-.3s.9.1 1.3.2.8.3 1.1.6l-.4.7c-.6-.4-1.2-.6-1.9-.6zm6.8.1v6.7h-1V2h-2.6v-.8h6.2V2h-2.6zm8.8 6.7V2.4l-2 1-.4-.8 2.6-1.3h.8v7.4h-1zm6.5 0V2.4l-2 1-.4-.8L58 1.3h.8v7.4h-1zm4.4 1.1h-1l3-9.8h1l-3 9.8zm8.4-6.7c0 .4-.1.8-.3 1.1-.2.3-.4.5-.7.7.9.3 1.3.8 1.3 1.8 0 .4-.1.7-.2.9-.1.3-.3.5-.5.7s-.5.3-.9.4c-.3.1-.7.1-1.1.1-.5 0-.9-.1-1.3-.2s-.8-.3-1.1-.6l.5-.7c.3.2.6.4.9.5s.6.2 1 .2c.5 0 .9-.1 1.2-.3s.4-.6.4-1-.1-.8-.4-.9-.7-.3-1.2-.3h-1.1v-1h1.1c.2 0 .4 0 .6-.1s.3-.2.4-.3c.1-.1.2-.3.2-.4.1-.2.1-.3.1-.5 0-.4-.1-.7-.4-.9s-.5-.3-.9-.3c-.3 0-.6 0-.9.1s-.6.2-.8.4l-.5-.6c.3-.2.6-.4 1-.5s.8-.2 1.2-.2c.7 0 1.3.2 1.7.5.5.3.7.8.7 1.4z"/><path class="st0" d="M0 9.9v-.8h71.8v.8H0z"/></svg>