<svg id="Layer_1" xmlns="http://www.w3.org/2000/svg" viewBox="0 0 160 51"><style>.st0{fill:#fff}</style><path class="st0" d="M35.9 44.1c-14.3 1.3-29.1-.8-31.2-11.9-1-5.5 1.5-11.3 4.8-14.9v-1.9c-6 5.2-9.2 11.9-7.3 19.7 2.4 10 15.1 15.7 34.5 13.8 7.7-.7 17.7-3.2 24.7-7.1v-5.5c-6.3 3.8-16.8 7-25.5 7.8m37.4-28.9C70-1.2 38-2.3 17.3 10.3v1.4C38 1.1 67.2 1.1 69.8 16.3c.9 5-1.9 10.3-7 13.3v3.9c6.1-2.2 12.4-9.4 10.5-18.3m-13 18.2c-2.8-.3-3.7-2-3.7-3.9V12.8h3.7v20.6zm-44.4.3c-2.8-.3-3.7-2-3.7-3.9V18.9h3.7v14.8zm0-16.8h-3.7v-3.5h3.7v3.5zm22.3 16.6c-3 0-4.3-2.1-4.3-4.2V14.9h3.7v4h2.8v3h-2.8v7.2c0 .8.4 1.3 1.3 1.3h1.5v3.1h-2.2m6.8-6.1c0 1.9 1.2 3.3 3.3 3.3 1.6 0 2.4-.5 3.4-1.4l2.3 2.2c-1.5 1.4-3 2.3-5.7 2.3-3.5 0-6.9-1.9-6.9-7.6 0-4.8 3-7.5 6.8-7.5 3.9 0 6.2 3.2 6.2 7.4v1.3H45m3-5.7c-1.3 0-2.2.7-2.7 1.5-.2.5-.3.9-.4 1.6h5.7c.1-1.5-.7-3.1-2.6-3.1m-25.1.2v11.6h-3.7V18.9h7.6c3.2 0 4.4 2.3 4.4 4.4v10.2h-3.7V23.3c0-.9-.5-1.4-1.5-1.4h-3.1zm41.4-6.1c-.8 0-1.5-.7-1.5-1.5s.7-1.5 1.5-1.5 1.5.7 1.5 1.5-.7 1.5-1.5 1.5m0-2.7c-.7 0-1.2.6-1.2 1.2 0 .7.5 1.2 1.2 1.2s1.2-.6 1.2-1.2c.1-.6-.5-1.2-1.2-1.2m.7 2.1h-.4l-.4-.6H64v.6s0 .1-.1.1h-.2s-.1 0-.1-.1v-1.6c0-.1 0-.1.1-.1h.5c.5 0 .7.1.7.6 0 .3-.1.4-.3.5l.4.7v-.1m-.4-1.2c0-.2-.1-.2-.3-.2H64v.5h.2c.3-.1.4-.2.4-.3zm24.5 2.2v20.9h-3.6V16.2h-3.3v-3.4h10.3v3.4h-3.4zm15.2 5.5c0 2.1-.7 3.5-2.2 4.1.7.3 1.1 1 1.3 1.9l1.7 9.4h-3.8l-1.3-8.3c-.1-.6-.2-1-.4-1.2-.2-.2-.5-.3-1-.3H98v9.8h-3.6V12.8h4.8c1.8 0 3.1.4 3.9 1.2.8.8 1.3 2.2 1.3 4v3.7zm-3.6-3.5c0-.8-.1-1.3-.4-1.6-.3-.3-.8-.5-1.4-.5H98v8.1h.9c.6 0 1.1-.2 1.4-.6.3-.4.4-1 .4-1.8v-3.6zm12.7-5.4h3.6v18.3c0 2.2-.4 3.8-1.2 4.8-.8 1-2.1 1.5-3.8 1.5h-.3c-1.7 0-3-.5-3.8-1.5-.8-1-1.2-2.6-1.2-4.8V12.8h3.6v18c0 1.2.1 2.1.3 2.6.2.5.6.7 1.1.7h.1c.5 0 .9-.2 1.1-.7.2-.5.3-1.3.3-2.5V12.8zm10 13.8v7.2h4.8v3.4h-8.5V12.8h8.3v3.4h-4.6v7h3.7v3.4h-3.7zm17.5-1l1.5-12.8h3.6l-3.6 24.3h-4.3l-3.6-24.3h3.7l1.5 12.8.6 5.9.6-5.9zm16.7-3.9c0 2.1-.7 3.5-2.2 4.1.7.3 1.1 1 1.3 1.9l1.7 9.4h-3.8l-1.3-8.3c-.1-.6-.2-1-.4-1.2-.2-.2-.5-.3-1-.3h-.6v9.8h-3.6V12.8h4.8c1.8 0 3.1.4 3.9 1.2.8.8 1.3 2.2 1.3 4v3.7zm-3.6-3.5c0-.8-.1-1.3-.4-1.6-.3-.3-.8-.5-1.4-.5h-.9v8.1h.9c.6 0 1.1-.2 1.4-.6.3-.4.4-1 .4-1.8v-3.6z"/></svg>