<svg id="Layer_1" xmlns="http://www.w3.org/2000/svg" viewBox="0 0 234 322"><style>.st0{fill:#fff}.st1{fill:#213261}.st2{fill:#d11317}</style><path class="st0" d="M226.3 37.1c-10.1 7.2-29.3 17.1-54.1 11C129.3 37.4 117 .5 117 .5s-12.3 37-55.2 47.5c-24.8 6.1-44-3.7-54.1-11H0v199.3c0 5 1.2 15 9.4 24.9 10.1 12.3 27.2 20.2 50.9 23.6 18.9 2.7 32.8 8.7 42.6 18.1 7.2 7 14.1 19 14.1 19s7.1-12.3 14.1-19c9.8-9.5 23.8-15.4 42.6-18.1 23.7-3.4 40.8-11.4 50.9-23.6 8.2-9.9 9.4-19.9 9.4-24.9V37.1h-7.7"/><path class="st1" d="M227 44.8s-23.5 18.3-56.5 10C132 45.2 117 16.4 117 16.4s-15 28.9-53.5 38.5c-33 8.3-56.5-10-56.5-10v191.5c0 6.5 2.7 34.1 54.3 41.6 20.4 2.9 35.6 9.5 46.5 20 3.9 3.8 6.9 7.6 9.2 11.1 2.3-3.5 5.3-7.4 9.2-11.1 10.9-10.5 26.1-17.1 46.5-20 51.6-7.5 54.3-35.1 54.3-41.6V44.8"/><path class="st0" d="M117 289.6s15-18.4 53.8-24.4c44.5-6.9 43.2-27.8 43.2-28.8V136H19.9v100.3c0 1.1-1.3 22 43.2 28.8 38.9 6.1 53.9 24.5 53.9 24.5"/><path class="st2" d="M71.8 209.3l-.1-47.7-5.9-3.3v-12.4H93v12.4l-5.7 3.3v97.3l-14.6-4.3-21-62.2v41l6.7 5.1v12.6l-29.3-7.4v-10.8l6.7-2.6v-68.6l-6.8-3.4v-12.4h22.1l20.7 63.4M121.9 252.9l5.9 7v12.4l-29-10.8V251l6.4-2.6v-86.8l-6.4-3.2v-12.5h50.3v25.2h-11l-3.4-10.4h-12.8v29.1h9.6l3.8-5.5h7.7v25.9h-7.7l-3.6-5.2h-9.8v47.9M153.9 257.3V245l7.2-6v-77.4l-6.1-3.2v-12.5h29v12.5l-5.7 3.2v72.7l12.4-3.4 2.4-19H205v31.8l-51.1 13.6"/><path class="st0" d="M25 115.5l-8.8-6.6h10.7l3.6-10.2 3.5 10.2h10.8l-8.8 6.6 3.2 10.3-8.7-6.1-8.7 6.1 3.2-10.3M63.1 115.5l-8.8-6.6H65l3.6-10.2 3.5 10.2h10.7l-8.7 6.6 3.2 10.3-8.7-6.1-8.8 6.1 3.3-10.3M25 81.1l-8.8-6.6h10.7l3.6-10.2L34 74.5h10.8L36 81.1l3.2 10.3-8.7-6.1-8.7 6.1L25 81.1M63.1 81.1l-8.8-6.6H65l3.6-10.2 3.5 10.2h10.7l-8.7 6.6 3.2 10.3-8.7-6.1-8.8 6.1 3.3-10.3M212.2 125.8l-8.7-6.1-8.7 6.1 3.2-10.3-8.7-6.6H200l3.5-10.2 3.6 10.2h10.7l-8.8 6.6 3.2 10.3M174.2 125.8l-8.8-6.1-8.7 6.1 3.2-10.3-8.7-6.6h10.7l3.5-10.2 3.6 10.2h10.7l-8.8 6.6 3.3 10.3M212.2 91.4l-8.7-6.1-8.7 6.1 3.2-10.3-8.7-6.6H200l3.5-10.2 3.6 10.2h10.7l-8.8 6.6 3.2 10.3M174.2 91.4l-8.8-6.1-8.7 6.1 3.2-10.3-8.7-6.6h10.7l3.5-10.2 3.6 10.2h10.7l-8.8 6.6 3.3 10.3M141.2 53.5s-4.5 2.4-10.9 8.6c1.4.8 3 1.9 4 2.7-1 .9-1.9 1.8-2.8 2.6-4.1-3.4-8.4-5.1-11.8-5.9 1.1-.8 2.3-1.6 3.4-2.3 1.8.5 3.5 1.2 3.5 1.2 7.2-5.5 13.4-7.8 13.4-7.8s-.7-.4-2.6-.3c-28.2.4-54.1 21.4-49.2 57.4.5 3.8 2 10.8 3.9 13.8.6-6 2.9-19.2 9.6-33.4-2.3-.8-4.2-1.2-4.2-1.2.7-1.4 1.6-3.3 1.6-3.3 4.9.9 9.3 3 13.1 6-.9 1.5-1.5 2.4-2 3.2-1.3-1-2.7-1.9-4.1-2.8-7.5 13.1-11 25.5-12.4 32 .1.4.9.6 1.6.5 30.9-4 45.3-19.7 49.7-36.8 2.9-11.2 1.9-22.9-1.9-32.5-.5-.6-1-1.7-1.9-1.7m-26.6 34c-4-3.3-8.7-5.4-13.3-6.3 0 0 1.4-2.3 2.2-3.5 5.6 1.1 10.2 3.7 13.4 6.4-.8 1.3-1.6 2.4-2.3 3.4zm5.1-7.1c-3.7-3.1-8.3-5.5-13.4-6.5.8-1 1.7-2.1 2.6-3.1 3.9.7 8.9 2.8 13.3 6.4-.9 1.1-1.7 2.2-2.5 3.2zm5.7-6.8c-3.9-3.2-8.3-5.3-12.9-6.3 1.1-1.1 2.3-2 3.3-2.8 5.8 1.4 9.7 4 12.4 6.2-1.1 1-2 2-2.8 2.9z"/></svg>